<svg id="ede90d79-e28d-4a59-85ac-38cbe0aaf26b" data-name="Layer 1" xmlns="http://www.w3.org/2000/svg" viewBox="0 0 400 400"><defs><style>.eeb1cdc8-5073-44c7-8cac-929478405060{fill:#997dff;}</style></defs><path class="eeb1cdc8-5073-44c7-8cac-929478405060" d="M366.19,23.81V0h-5V23.81a10,10,0,0,1-10,10H48.81a10,10,0,0,1-10-10V0h-5V23.81a10,10,0,0,1-10,10H0v5H23.81a10,10,0,0,1,10,10V351.19a10,10,0,0,1-10,10H0v5H23.81a10,10,0,0,1,10,10V400h5V376.19a10,10,0,0,1,10-10H351.19a10,10,0,0,1,10,10V400h5V376.19a10,10,0,0,1,10-10H400v-5H376.19a10,10,0,0,1-10-10V48.81a10,10,0,0,1,10-10H400v-5H376.19A10,10,0,0,1,366.19,23.81Zm-5,25V351.19a10,10,0,0,1-10,10H48.81a10,10,0,0,1-10-10V48.81a10,10,0,0,1,10-10H351.19A10,10,0,0,1,361.19,48.81Z"/></svg>
