<svg id="aa3a992b-c2c1-4bfd-9557-46aa7c648595" data-name="Layer 1" xmlns="http://www.w3.org/2000/svg" viewBox="0 0 400 400"><defs><style>.ba78e040-f380-4d14-963e-0c882f46f1ae{fill:#fff;}</style></defs><path class="ba78e040-f380-4d14-963e-0c882f46f1ae" d="M176.34,286.71q0-62.65,23.34-101.73t49-39.1q27.26,0,27.23,37.34Q275.93,258.7,176.34,286.71Z"/><path class="ba78e040-f380-4d14-963e-0c882f46f1ae" d="M400,164.89,346.83,328.55A84.39,84.39,0,0,1,310,375.09l-.23.13q-23.35,13.8-49,13.82-65.77,0-81.31-75.89Q350.63,263,350.63,182.45q0-30.34-21.79-49t-58-18.68q-69.65,0-126.83,66.73T86.87,330.68q0,40.4,17.36,69.32H76.39L0,164.89,200,19.56Z"/></svg>
